mastitorrents.com
 
http://mastitorrents.com/forums/index.php

General
Complete name : D:\MOVIES\DUBBED\Harry Potter and the Deathly Hallows [2010] Dvd-Scr Dual-Audio-Rip By [~SAIF~] [~TDT]\Harry Potter and the Deathly Hallows [2010] Dvd-Scr Dual-Audio-Rip By [~SAIF~] [~TDT].mkv
Format : Matroska
File size : 735 MiB
Duration : 2h 9mn
Overall bit rate : 795 Kbps
Encoded date : UTC 2010-11-28 18:38:48
Writing application : mkvmerge v4.1.1 ('Bouncin' Back') built on Jul 3 2010 22:54:08
Writing library : libebml v1.0.0 + libmatroska v1.0.0

Video
ID : 1
Format : MPEG-4 Visual
Format profile : Advanced Simple@L5
Format settings, BVOP : Yes
Format settings, QPel : No
Format settings, GMC : No warppoints
Format settings, Matrix : Default (H.263)
Codec ID : XVID
Codec ID/Hint : XviD
Duration : 2h 9mn
Bit rate : 587 Kbps
Width : 656 pixels
Height : 288 pixels
Display aspect ratio : 2.25:1
Frame rate : 25.000 fps
Color space : YUV
Chroma subsampling : 4:2:0
Bit depth : 8 bits
Scan type : Progressive
Bits/(Pixel*Frame) : 0.124
Stream size : 543 MiB (74%)
Writing library : XviD 1.2.1 (UTC 2008-12-04)

Audio #1
ID : 2
Format : MPEG Audio
Format version : Version 1
Format profile : Layer 2
Codec ID : A_MPEG/L2
Codec ID/Hint : MP2
Duration : 2h 9mn
Bit rate mode : Constant
Bit rate : 64.0 Kbps
Channel(s) : 2 channels
Sampling rate : 48.0 KHz
Stream size : 59.1 MiB (8%)
Title : SAIF [ HINDI]
Language : Hindi 